<svg width="280" height="248" viewBox="0 0 280 248" fill="none" xmlns="http://www.w3.org/2000/svg">
<g clip-path="url(#clip0_2_379)">
<path d="M216.868 158.422C216.631 158.012 216.486 157.555 216.444 157.083C216.403 156.612 216.465 156.137 216.627 155.692C216.788 155.246 217.046 154.842 217.381 154.507C217.715 154.173 218.12 153.915 218.565 153.754L218.398 142.244L223.439 145.464L222.824 155.9C223.046 156.666 222.98 157.487 222.637 158.207C222.295 158.927 221.7 159.496 220.966 159.807C220.232 160.117 219.409 160.148 218.654 159.893C217.898 159.638 217.263 159.114 216.868 158.422Z" fill="#B88E94"/>
<path d="M210.793 95.9332C209.299 96.1972 207.942 96.971 206.954 98.1228C205.967 99.2746 205.408 100.733 205.375 102.25C205.302 105.619 206.426 106.875 208.015 107.329C210.951 108.168 215.628 125.136 215.628 125.136C215.628 125.136 216.125 140.962 216.925 140.181C217.726 139.399 216.82 141.223 217.063 141.78C217.306 142.336 215.91 143.169 217.237 143.801C218.565 144.434 217.726 149.468 217.726 149.468L223.599 149.048C223.599 149.048 222.624 144.947 223.95 144.69C225.277 144.434 224.674 143.266 224.136 142.382C223.599 141.497 225.088 140.236 224.343 139.818C223.599 139.399 225.696 123.039 225.696 123.039L217.495 98.9084C216.801 97.8016 215.793 96.9272 214.599 96.3971C213.404 95.8671 212.079 95.7055 210.793 95.9332Z" fill="#0A4378"/>
<path d="M192.975 96.8829L197.2 89.4777H202.907L207.188 97.3024L192.975 96.8829Z" fill="#0A4378"/>
<path d="M181.611 30.2911C178.235 18.9835 168.698 11.6016 157.174 9.98214C157.047 9.96427 156.927 9.98788 156.8 9.97973C156.637 9.92986 156.471 9.89152 156.302 9.865C140.454 7.81673 123.153 11.4851 109.384 20.1005C96.1852 28.3588 81.0195 33.0185 65.4505 32.915C64.967 32.9118 64.4816 32.9223 63.9943 32.9464C52.0128 33.5443 41.4388 42.266 38.1997 53.7376C37.7746 55.2427 38.5153 56.5876 39.7065 57.4405C41.7996 58.9396 43.2293 59.9903 45.8045 60.5358C50.3996 61.5093 55.0104 62.4044 59.6369 63.2213V44.7926C59.6389 43.048 60.3328 41.3754 61.5665 40.1417C62.8001 38.9081 64.4728 38.2141 66.2174 38.2121H156.609C158.354 38.2141 160.026 38.9081 161.26 40.1417C162.493 41.3754 163.187 43.048 163.189 44.7926V67.7429C164.429 67.3552 165.639 66.8789 166.811 66.3174C171.171 64.1637 174.897 60.9127 177.621 56.8839C182.854 49.2906 184.236 39.0856 181.611 30.2911Z" fill="#D1D1D1"/>
<path d="M143.552 138.141H63.645C61.801 138.139 60.0332 137.405 58.7293 136.101C57.4255 134.798 56.692 133.03 56.6899 131.186V100.18C46.9573 97.2002 36.7067 96.3017 26.6042 97.5426C26.4356 97.5691 26.2691 97.6074 26.106 97.6573C25.9798 97.6654 25.8594 97.6418 25.7327 97.6597C14.2085 99.2791 4.67146 106.661 1.29568 117.969C-1.32999 126.763 0.0522087 136.968 5.28543 144.561C8.00969 148.59 11.735 151.841 16.0956 153.995C22.0893 156.882 28.3978 157.099 34.9396 157.303C54.5811 157.916 74.2414 157.173 93.7805 155.079C103.396 154.048 112.972 152.7 122.508 151.036C127.389 150.181 132.253 149.241 137.102 148.213C139.677 147.668 141.107 146.617 143.2 145.118C144.391 144.265 145.132 142.92 144.707 141.415C144.391 140.301 144.005 139.207 143.552 138.141Z" fill="#D1D1D1"/>
<path d="M150.624 128.942H72.2025C70.6888 128.941 69.2377 128.338 68.1674 127.268C67.0972 126.198 66.4951 124.747 66.4933 123.233V50.3547C66.4951 48.841 67.0972 47.3899 68.1674 46.3196C69.2377 45.2494 70.6888 44.6473 72.2025 44.6455H150.624C152.137 44.6473 153.589 45.2494 154.659 46.3196C155.729 47.3899 156.331 48.841 156.333 50.3547V123.233C156.331 124.747 155.729 126.198 154.659 127.268C153.589 128.338 152.137 128.941 150.624 128.942Z" fill="#E6E6E6"/>
<path d="M134.118 125.091H76.0542C74.5406 125.09 73.0895 124.488 72.0192 123.417C70.9489 122.347 70.3469 120.896 70.3451 119.382V54.2086C70.3469 52.695 70.9489 51.2439 72.0192 50.1736C73.0895 49.1033 74.5406 48.5013 76.0542 48.4995H146.773C148.287 48.5013 149.738 49.1033 150.808 50.1736C151.878 51.2439 152.48 52.695 152.482 54.2086V106.728C152.477 111.596 150.54 116.264 147.097 119.707C143.655 123.149 138.987 125.086 134.118 125.091Z" fill="#DFDFDF"/>
<path d="M111.414 112.386C125.547 112.386 137.004 100.928 137.004 86.7954C137.004 72.6624 125.547 61.2053 111.414 61.2053C97.2806 61.2053 85.8235 72.6624 85.8235 86.7954C85.8235 100.928 97.2806 112.386 111.414 112.386Z" fill="#0A4378"/>
<path d="M122.194 85.508L113.654 75.1234C113.422 74.8417 113.132 74.6138 112.804 74.4553C112.475 74.2968 112.116 74.2116 111.751 74.2055C111.387 74.1995 111.025 74.2728 110.692 74.4203C110.358 74.5678 110.061 74.7861 109.82 75.0599L100.687 85.4444C100.248 85.9459 100.025 86.6015 100.068 87.2672C100.111 87.9328 100.417 88.5542 100.917 88.9947C101.418 89.4352 102.074 89.6589 102.739 89.6165C103.405 89.5742 104.027 89.2694 104.468 88.769L109.193 83.3961V96.8687C109.193 97.5363 109.458 98.1765 109.93 98.6485C110.402 99.1206 111.042 99.3858 111.71 99.3858C112.377 99.3858 113.018 99.1206 113.49 98.6485C113.962 98.1765 114.227 97.5363 114.227 96.8687V83.7461L118.305 88.7055C118.729 89.2211 119.341 89.5472 120.005 89.6119C120.67 89.6767 121.333 89.4749 121.848 89.0509C122.364 88.6268 122.69 88.0154 122.755 87.3509C122.819 86.6865 122.618 86.0236 122.194 85.508L122.194 85.508Z" fill="#DFDFDF"/>
<path d="M221.691 242.613L217.895 242.612L216.089 227.968L221.693 227.969L221.691 242.613Z" fill="#B88E94"/>
<path d="M221.825 246.573L210.151 246.573V246.425C210.151 245.22 210.629 244.064 211.482 243.212C212.334 242.36 213.49 241.881 214.695 241.881H214.695L216.828 240.263L220.806 241.881L221.825 241.881L221.825 246.573Z" fill="#2F2E41"/>
<path d="M193.165 242.613L189.368 242.612L187.562 227.968L193.166 227.969L193.165 242.613Z" fill="#B88E94"/>
<path d="M193.299 246.573L181.624 246.573V246.425C181.624 245.22 182.103 244.064 182.955 243.212C183.807 242.36 184.963 241.881 186.168 241.881H186.168L188.301 240.263L192.28 241.881L193.299 241.881L193.299 246.573Z" fill="#2F2E41"/>
<path d="M222.902 230.493C224.287 229.588 223.485 229.647 223.485 229.647C223.485 229.647 220.387 204.535 218.031 196.925L215.304 159.867C215.304 159.867 215.131 160.606 215.304 158.809C215.477 157.013 216.736 158.271 215.477 157.013C214.219 155.754 213.38 155.113 214.219 154.175C215.058 153.237 217.372 151.34 216.005 150.191C214.638 149.042 211.948 141.549 211.948 141.549L185.729 141.759L186.778 141.549C186.778 141.549 183.505 140.335 185.004 141.916C186.503 143.498 184.165 147.37 183.326 151.146C182.631 154.273 180.568 155.103 183.326 155.76C186.084 156.418 183.588 158.282 183.588 158.282C183.588 158.282 179.436 178.047 182.583 191.052C182.583 191.052 184.753 223.216 185.852 225.982C186.951 228.749 187.37 227.071 186.951 228.749C186.531 230.427 185.692 227.49 186.531 230.427C186.989 231.961 187.352 233.521 187.617 235.1L193.306 234.681C193.306 234.681 194.627 230.516 193.306 229.423C191.985 228.329 192.897 231.52 194.329 229.086C195.76 226.651 194.082 227.49 193.663 224.134C193.243 220.778 197.092 205.144 194.329 195.551L199.436 168.634L207.543 196.505C207.543 196.505 211.844 230.544 213.241 231.744C214.638 232.944 214.074 230.032 214.638 232.944C215.209 235.887 216.504 235.106 216.467 235.467C216.076 239.315 222.902 235.52 222.902 235.52C222.835 234.542 222.835 233.561 222.902 232.583C223.029 231.685 221.517 231.398 222.902 230.493Z" fill="#2F2E41"/>
<path d="M188.36 150.307C186.682 150.307 182.067 148.034 182.906 147.073C183.745 146.112 183.745 142.921 183.745 141.999C183.745 141.077 187.521 107.097 187.521 107.097L187.234 98.7772C187.217 98.2785 187.3 97.7814 187.479 97.3156C187.658 96.8498 187.929 96.4248 188.276 96.0659C188.623 95.7071 189.038 95.4217 189.497 95.2267C189.957 95.0318 190.451 94.9313 190.95 94.9313L194.653 93.6728L205.14 93.2533L210.37 94.9313C210.889 94.9313 211.399 95.0645 211.852 95.3181C212.305 95.5717 212.685 95.9373 212.956 96.3798C213.227 96.8223 213.38 97.3269 213.4 97.8454C213.42 98.3639 213.307 98.8789 213.071 99.3411C215.846 103.872 217.239 109.114 217.078 114.424C216.958 118.398 214.945 123.25 214.46 127.739C214.417 128.133 214.386 128.524 214.37 128.912C214.365 129.02 213.506 129.558 214.357 129.235C215.209 128.912 213.901 130.053 214.345 130.741C214.789 131.429 215.65 131.007 214.38 131.847C213.111 132.687 215.904 140.801 215.628 141.077C214.789 141.916 213.111 142.336 214.37 143.594C215.628 144.853 216.887 144.014 215.209 145.692C213.531 147.37 208.503 150.307 208.503 150.307L188.36 150.307Z" fill="#3F3D56"/>
<path d="M199.575 88.3818C204.562 88.3818 208.604 84.3393 208.604 79.3526C208.604 74.366 204.562 70.3235 199.575 70.3235C194.589 70.3235 190.546 74.366 190.546 79.3526C190.546 84.3393 194.589 88.3818 199.575 88.3818Z" fill="#B88E94"/>
<path d="M144.582 107.367C145.015 107.176 145.484 107.082 145.958 107.091C146.431 107.101 146.897 107.215 147.322 107.424C147.747 107.633 148.12 107.933 148.417 108.302C148.713 108.671 148.925 109.101 149.038 109.561L160.497 110.645L156.749 115.306L146.441 113.562C145.656 113.7 144.847 113.545 144.169 113.126C143.49 112.707 142.989 112.054 142.76 111.291C142.531 110.527 142.589 109.706 142.925 108.983C143.261 108.26 143.85 107.685 144.582 107.367V107.367Z" fill="#B88E94"/>
<path d="M198.916 100.646C198.652 99.1518 197.879 97.7953 196.727 96.8074C195.575 95.8196 194.116 95.2616 192.599 95.2283C189.231 95.1553 187.975 96.2794 187.521 97.8679C186.682 100.804 173.175 111.127 173.175 111.127L161.575 109.872C160.878 109.645 161.208 109.01 158.586 109.548C157.294 108.702 156.459 108.845 155.739 109.24L151.443 108.775L151.863 115.487C151.863 115.487 156.462 114.393 157.316 116.326C158.171 118.259 157.975 118.537 159.833 117.165C161.692 115.794 161.511 117.165 161.511 117.165L174.936 120.521L195.941 107.349C197.048 106.654 197.922 105.646 198.452 104.452C198.982 103.258 199.144 101.932 198.916 100.646H198.916Z" fill="#0A4378"/>
<path d="M203.081 87.4137L203.672 87.6025C201.822 87.7577 198.525 88.7897 198.848 88.2192C199.171 87.6486 197.95 85.4965 198.546 85.2239C199.165 85.0066 199.717 84.6322 200.148 84.1373C200.526 83.6087 200.517 82.7362 199.951 82.4131C199.402 82.0943 198.722 82.4383 198.177 82.7613C197.627 83.0802 196.612 78.39 196.872 76.9259C195.341 76.0869 193.486 77.6937 191.766 77.379C190.713 77.186 189.954 76.3219 189.476 75.3402C190.257 74.5991 190.839 73.6727 191.167 72.647C190.436 73.0148 189.656 73.2735 188.851 73.4146C188.706 72.6529 188.726 71.8691 188.91 71.1157C189.05 70.5143 189.337 69.9569 189.744 69.4929C190.152 69.0289 190.668 68.6728 191.246 68.456C191.833 68.2615 192.469 68.2727 193.048 68.4877C193.628 68.7028 194.117 69.1089 194.435 69.6391C194.47 69.068 194.324 68.5004 194.016 68.0179C193.708 67.5355 193.256 67.163 192.723 66.9542C193.112 66.7525 193.542 66.6433 193.98 66.6353C194.418 66.6272 194.851 66.7204 195.247 66.9076C195.643 67.0948 195.991 67.3709 196.262 67.7145C196.534 68.058 196.722 68.4597 196.813 68.8881C198.708 67.9387 200.881 67.7063 202.934 68.2337C204.964 68.7665 207.657 71.0193 207.657 71.0193C212.239 72.0303 212.02 89.4483 203.081 87.4137Z" fill="#2F2E41"/>
<path d="M250.916 242.973C251.02 242.978 251.124 242.95 251.212 242.894C251.301 242.838 251.37 242.757 251.41 242.66C251.45 242.564 251.46 242.457 251.438 242.355C251.416 242.252 251.362 242.16 251.286 242.089L251.251 241.949L251.265 241.916C251.37 241.667 251.546 241.455 251.772 241.307C251.997 241.158 252.262 241.079 252.532 241.08C252.802 241.081 253.065 241.162 253.29 241.312C253.514 241.463 253.689 241.676 253.792 241.926C254.206 242.921 254.732 243.919 254.862 244.972C254.919 245.437 254.895 245.909 254.791 246.366C255.762 244.248 256.266 241.945 256.269 239.615C256.269 239.03 256.237 238.446 256.172 237.865C256.118 237.389 256.044 236.916 255.948 236.446C255.428 233.898 254.31 231.51 252.688 229.478C251.902 229.049 251.267 228.39 250.868 227.59C250.723 227.302 250.621 226.995 250.564 226.678C250.736 226.224 250.827 225.743 250.831 225.257C250.955 225.07 251.176 224.977 251.311 224.794C251.981 223.885 252.905 224.043 253.388 225.279C254.418 225.799 254.428 226.661 253.796 227.491C253.394 228.019 253.338 228.733 252.985 229.298C253.022 229.344 253.059 229.389 253.096 229.436C253.759 230.289 254.338 231.206 254.823 232.172C254.705 231.089 254.846 229.994 255.234 228.977C255.627 228.028 256.364 227.23 257.012 226.41C257.184 226.19 257.417 226.025 257.682 225.937C257.947 225.85 258.232 225.842 258.501 225.916C258.771 225.991 259.012 226.143 259.194 226.354C259.377 226.565 259.493 226.826 259.527 227.103L259.531 227.139C259.435 227.194 259.34 227.251 259.248 227.313C259.132 227.39 259.042 227.501 258.99 227.63C258.938 227.76 258.927 227.902 258.957 228.038C258.987 228.174 259.058 228.298 259.159 228.393C259.261 228.488 259.389 228.551 259.527 228.572L259.541 228.574C259.507 228.922 259.446 229.266 259.36 229.604C260.192 232.823 258.395 233.996 255.829 234.048C255.772 234.077 255.717 234.106 255.661 234.134C256.148 235.515 256.453 236.953 256.57 238.413C256.636 239.274 256.632 240.139 256.558 240.999L256.562 240.969C256.748 240.012 257.259 239.149 258.008 238.524C259.12 237.611 260.691 237.275 261.891 236.54C262.018 236.458 262.166 236.415 262.318 236.414C262.469 236.414 262.618 236.457 262.746 236.538C262.874 236.619 262.976 236.735 263.04 236.873C263.104 237.01 263.127 237.163 263.107 237.313L263.102 237.345C262.924 237.418 262.749 237.502 262.581 237.596C262.485 237.651 262.39 237.708 262.298 237.77C262.182 237.847 262.092 237.958 262.04 238.087C261.988 238.217 261.977 238.359 262.007 238.495C262.037 238.631 262.108 238.755 262.209 238.85C262.311 238.946 262.439 239.008 262.577 239.029L262.591 239.031L262.62 239.036C262.315 239.765 261.886 240.437 261.352 241.021C260.832 243.831 258.596 244.098 256.205 243.279H256.204C255.941 244.42 255.561 245.529 255.069 246.591H251.017C251.003 246.546 250.99 246.499 250.977 246.454C251.352 246.478 251.728 246.455 252.098 246.388C251.797 246.019 251.497 245.647 251.196 245.278C251.189 245.271 251.183 245.264 251.177 245.256C251.025 245.067 250.871 244.88 250.718 244.691L250.718 244.691C250.71 244.112 250.776 243.535 250.916 242.973L250.916 242.973Z" fill="#D1D1D1"/>
<path d="M116.007 247.166L279.501 247.295C279.633 247.295 279.76 247.243 279.854 247.149C279.947 247.055 280 246.928 280 246.796C280 246.663 279.947 246.536 279.854 246.443C279.76 246.349 279.633 246.296 279.501 246.296L116.007 246.167C115.874 246.167 115.747 246.22 115.654 246.314C115.56 246.407 115.507 246.534 115.507 246.667C115.507 246.799 115.56 246.926 115.654 247.02C115.747 247.114 115.874 247.166 116.007 247.166Z" fill="#CACACA"/>
<path d="M107.654 177.155C106.48 177.155 105.333 176.807 104.357 176.155C103.381 175.503 102.621 174.576 102.171 173.492C101.722 172.408 101.605 171.215 101.834 170.063C102.063 168.912 102.628 167.855 103.458 167.025C104.288 166.195 105.345 165.63 106.496 165.401C107.647 165.172 108.84 165.29 109.925 165.739C111.009 166.188 111.936 166.948 112.588 167.924C113.24 168.9 113.588 170.047 113.588 171.221C113.586 172.794 112.961 174.303 111.848 175.415C110.736 176.528 109.227 177.154 107.654 177.155ZM107.654 166.126C106.646 166.126 105.661 166.425 104.823 166.985C103.985 167.545 103.332 168.34 102.947 169.271C102.561 170.202 102.46 171.227 102.657 172.215C102.853 173.204 103.338 174.111 104.051 174.824C104.764 175.537 105.671 176.022 106.66 176.218C107.648 176.415 108.673 176.314 109.604 175.928C110.535 175.543 111.331 174.89 111.89 174.052C112.45 173.214 112.749 172.229 112.749 171.221C112.748 169.87 112.21 168.575 111.255 167.62C110.3 166.665 109.005 166.127 107.654 166.126Z" fill="#D1D1D1"/>
<path d="M109.977 170.944L108.137 168.706C108.087 168.645 108.024 168.596 107.953 168.562C107.883 168.528 107.805 168.509 107.727 168.508C107.648 168.507 107.57 168.522 107.498 168.554C107.426 168.586 107.362 168.633 107.31 168.692L105.342 170.93C105.248 171.038 105.201 171.179 105.21 171.322C105.22 171.465 105.286 171.599 105.393 171.693C105.501 171.788 105.642 171.836 105.785 171.827C105.928 171.819 106.062 171.753 106.157 171.646L107.175 170.489V173.392C107.175 173.536 107.232 173.674 107.334 173.775C107.436 173.877 107.574 173.934 107.718 173.934C107.862 173.934 108 173.877 108.101 173.775C108.203 173.674 108.26 173.536 108.26 173.392V170.564L109.139 171.633C109.23 171.744 109.362 171.814 109.505 171.828C109.649 171.842 109.791 171.799 109.903 171.707C110.014 171.616 110.084 171.484 110.098 171.341C110.112 171.198 110.068 171.055 109.977 170.944H109.977Z" fill="#D1D1D1"/>
<path d="M175.195 89.4777C174.021 89.4777 172.874 89.1297 171.898 88.4776C170.922 87.8256 170.162 86.8988 169.713 85.8144C169.263 84.7301 169.146 83.5369 169.375 82.3858C169.604 81.2347 170.169 80.1773 170.999 79.3474C171.829 78.5175 172.886 77.9523 174.037 77.7234C175.188 77.4944 176.382 77.6119 177.466 78.0611C178.55 78.5102 179.477 79.2708 180.129 80.2467C180.781 81.2225 181.129 82.3699 181.129 83.5435C181.127 85.1168 180.502 86.6252 179.389 87.7376C178.277 88.8501 176.768 89.4759 175.195 89.4777ZM175.195 78.4484C174.187 78.4484 173.202 78.7472 172.364 79.3071C171.526 79.8669 170.873 80.6627 170.488 81.5937C170.102 82.5247 170.001 83.5492 170.198 84.5376C170.394 85.5259 170.88 86.4338 171.592 87.1464C172.305 87.8589 173.213 88.3442 174.201 88.5408C175.189 88.7374 176.214 88.6365 177.145 88.2508C178.076 87.8652 178.872 87.2122 179.431 86.3743C179.991 85.5364 180.29 84.5513 180.29 83.5435C180.289 82.1927 179.751 80.8976 178.796 79.9424C177.841 78.9872 176.546 78.4499 175.195 78.4484V78.4484Z" fill="#D1D1D1"/>
<path d="M177.518 83.266L175.678 81.0281C175.628 80.9674 175.565 80.9183 175.495 80.8841C175.424 80.85 175.346 80.8316 175.268 80.8303C175.189 80.829 175.111 80.8448 175.039 80.8766C174.968 80.9084 174.903 80.9554 174.851 81.0144L172.883 83.2523C172.789 83.3605 172.742 83.5015 172.752 83.6445C172.761 83.7875 172.827 83.921 172.935 84.0156C173.042 84.1103 173.183 84.1585 173.326 84.1497C173.469 84.1409 173.603 84.0759 173.698 83.9688L174.716 82.8109V85.7143C174.716 85.8582 174.774 85.9961 174.875 86.0979C174.977 86.1996 175.115 86.2567 175.259 86.2567C175.403 86.2567 175.541 86.1996 175.642 86.0979C175.744 85.9961 175.801 85.8582 175.801 85.7143V82.8863L176.68 83.9551C176.772 84.0662 176.903 84.1365 177.046 84.1504C177.19 84.1644 177.333 84.1209 177.444 84.0295C177.555 83.9382 177.625 83.8064 177.639 83.6632C177.653 83.52 177.609 83.3771 177.518 83.266L177.518 83.266Z" fill="#D1D1D1"/>
<path d="M41.3713 84.4436C40.1977 84.4436 39.0503 84.0956 38.0745 83.4435C37.0986 82.7914 36.338 81.8647 35.8888 80.7803C35.4397 79.696 35.3222 78.5028 35.5512 77.3517C35.7801 76.2006 36.3453 75.1432 37.1752 74.3133C38.0051 73.4834 39.0625 72.9182 40.2136 72.6893C41.3647 72.4603 42.5579 72.5778 43.6422 73.0269C44.7266 73.4761 45.6533 74.2367 46.3054 75.2125C46.9575 76.1884 47.3055 77.3357 47.3055 78.5094C47.3037 80.0827 46.6779 81.591 45.5655 82.7035C44.453 83.816 42.9446 84.4418 41.3713 84.4436ZM41.3713 73.4143C40.3636 73.4143 39.3785 73.7131 38.5406 74.2729C37.7027 74.8328 37.0496 75.6286 36.664 76.5596C36.2784 77.4906 36.1775 78.5151 36.3741 79.5034C36.5707 80.4918 37.0559 81.3997 37.7685 82.1122C38.4811 82.8248 39.3889 83.3101 40.3773 83.5067C41.3657 83.7033 42.3901 83.6024 43.3212 83.2167C44.2522 82.8311 45.0479 82.178 45.6078 81.3401C46.1677 80.5022 46.4665 79.5171 46.4665 78.5094C46.465 77.1585 45.9277 75.8634 44.9725 74.9082C44.0173 73.953 42.7222 73.4157 41.3713 73.4142V73.4143Z" fill="#D1D1D1"/>
<path d="M43.6944 78.2319L41.8541 75.994C41.8042 75.9333 41.7416 75.8842 41.6709 75.85C41.6001 75.8159 41.5227 75.7975 41.4441 75.7962C41.3655 75.7949 41.2876 75.8107 41.2157 75.8425C41.1438 75.8743 41.0797 75.9213 41.0278 75.9803L39.0598 78.2182C38.9657 78.3264 38.9183 78.4674 38.9279 78.6104C38.9375 78.7534 39.0033 78.8868 39.1109 78.9815C39.2185 79.0762 39.3593 79.1244 39.5024 79.1156C39.6454 79.1068 39.7792 79.0418 39.8745 78.9347L40.8927 77.7768V80.6802C40.8927 80.824 40.9498 80.962 41.0515 81.0637C41.1533 81.1655 41.2912 81.2226 41.4351 81.2226C41.579 81.2226 41.7169 81.1655 41.8187 81.0637C41.9204 80.962 41.9775 80.824 41.9775 80.6802V77.8522L42.8564 78.921C42.9478 79.0321 43.0796 79.1024 43.2228 79.1163C43.3659 79.1303 43.5088 79.0868 43.6199 78.9954C43.731 78.904 43.8013 78.7723 43.8153 78.6291C43.8292 78.4859 43.7857 78.343 43.6944 78.2319L43.6944 78.2319Z" fill="#D1D1D1"/>
<path d="M88.7759 11.8684C87.6023 11.8684 86.4549 11.5203 85.4791 10.8683C84.5032 10.2162 83.7426 9.28943 83.2935 8.2051C82.8443 7.12077 82.7268 5.92761 82.9558 4.77649C83.1847 3.62537 83.7499 2.568 84.5798 1.73809C85.4097 0.908176 86.4671 0.343 87.6182 0.114028C88.7693 -0.114944 89.9625 0.00256709 91.0468 0.451711C92.1312 0.900855 93.058 1.66146 93.71 2.63733C94.3621 3.6132 94.7101 4.76051 94.7101 5.93419C94.7083 7.50748 94.0825 9.01582 92.9701 10.1283C91.8576 11.2408 90.3492 11.8666 88.7759 11.8684ZM88.7759 0.83903C87.7682 0.839029 86.7831 1.13786 85.9452 1.69772C85.1073 2.25758 84.4542 3.05334 84.0686 3.98436C83.683 4.91538 83.5821 5.93985 83.7787 6.92821C83.9753 7.91658 84.4605 8.82445 85.1731 9.53702C85.8857 10.2496 86.7935 10.7349 87.7819 10.9315C88.7703 11.1281 89.7947 11.0272 90.7258 10.6415C91.6568 10.2559 92.4525 9.6028 93.0124 8.76491C93.5723 7.92701 93.8711 6.94191 93.8711 5.93419C93.8696 4.58332 93.3323 3.28822 92.3771 2.33302C91.4219 1.37781 90.1268 0.840522 88.7759 0.839023V0.83903Z" fill="#D1D1D1"/>
<path d="M91.099 5.65664L89.2587 3.41875C89.2088 3.35805 89.1463 3.30891 89.0755 3.27476C89.0047 3.24061 88.9273 3.22225 88.8487 3.22095C88.7702 3.21964 88.6922 3.23544 88.6203 3.26723C88.5484 3.29902 88.4843 3.34605 88.4324 3.40506L86.4644 5.64295C86.3704 5.75112 86.3229 5.89213 86.3325 6.03515C86.3421 6.17817 86.4079 6.31159 86.5155 6.40625C86.6232 6.50091 86.7639 6.54912 86.907 6.54034C87.0501 6.53156 87.1838 6.46651 87.2791 6.3594L88.2973 5.20156V8.10494C88.2973 8.2488 88.3545 8.38676 88.4562 8.48849C88.5579 8.59021 88.6959 8.64736 88.8397 8.64736C88.9836 8.64736 89.1216 8.59021 89.2233 8.48849C89.325 8.38676 89.3822 8.2488 89.3822 8.10494V5.27696L90.2611 6.34574C90.3524 6.45685 90.4842 6.52712 90.6274 6.54108C90.7706 6.55503 90.9134 6.51154 91.0246 6.42016C91.1357 6.32879 91.2059 6.19701 91.2199 6.05382C91.2339 5.91064 91.1904 5.76778 91.099 5.65666L91.099 5.65664Z" fill="#D1D1D1"/>
<path d="M25.4299 128.492C24.2562 128.492 23.1089 128.144 22.133 127.492C21.1571 126.84 20.3964 125.913 19.9473 124.829C19.4981 123.745 19.3806 122.551 19.6096 121.4C19.8385 120.249 20.4037 119.192 21.2337 118.362C22.0636 117.532 23.121 116.967 24.2721 116.738C25.4233 116.509 26.6165 116.626 27.7008 117.075C28.7852 117.525 29.712 118.285 30.364 119.261C31.0161 120.237 31.3641 121.384 31.3641 122.558C31.3623 124.131 30.7366 125.64 29.6241 126.752C28.5116 127.865 27.0032 128.49 25.4299 128.492ZM25.4299 117.463C24.4222 117.463 23.4371 117.761 22.5991 118.321C21.7612 118.881 21.1081 119.677 20.7225 120.608C20.3368 121.539 20.2359 122.563 20.4325 123.552C20.629 124.54 21.1143 125.448 21.8269 126.161C22.5394 126.873 23.4473 127.359 24.4357 127.555C25.4241 127.752 26.4486 127.651 27.3796 127.265C28.3107 126.88 29.1064 126.227 29.6663 125.389C30.2262 124.551 30.5251 123.566 30.5251 122.558C30.5236 121.207 29.9863 119.912 29.0311 118.957C28.0759 118.001 26.7808 117.464 25.4299 117.463Z" fill="#DFDFDF"/>
<path d="M27.753 122.28L25.9127 120.043C25.8628 119.982 25.8003 119.933 25.7295 119.899C25.6587 119.864 25.5813 119.846 25.5027 119.845C25.4241 119.843 25.3462 119.859 25.2743 119.891C25.2024 119.923 25.1383 119.97 25.0864 120.029L23.1184 122.267C23.0244 122.375 22.9769 122.516 22.9865 122.659C22.9961 122.802 23.0619 122.935 23.1695 123.03C23.2772 123.125 23.4179 123.173 23.561 123.164C23.704 123.155 23.8378 123.09 23.9331 122.983L24.9513 121.825V124.729C24.9513 124.873 25.0084 125.011 25.1102 125.112C25.2119 125.214 25.3499 125.271 25.4937 125.271C25.6376 125.271 25.7756 125.214 25.8773 125.112C25.979 125.011 26.0362 124.873 26.0362 124.729V121.901L26.915 122.97C27.0064 123.081 27.1382 123.151 27.2814 123.165C27.4246 123.179 27.5674 123.135 27.6786 123.044C27.7897 122.953 27.8599 122.821 27.8739 122.678C27.8879 122.534 27.8444 122.392 27.753 122.28L27.753 122.28Z" fill="#DFDFDF"/>
<path d="M153.8 29.0683C152.626 29.0683 151.479 28.7203 150.503 28.0682C149.527 27.4162 148.767 26.4893 148.317 25.405C147.868 24.3206 147.751 23.1274 147.98 21.9763C148.209 20.8252 148.774 19.7678 149.604 18.9378C150.434 18.1079 151.491 17.5427 152.642 17.3137C153.793 17.0848 154.987 17.2023 156.071 17.6514C157.155 18.1006 158.082 18.8612 158.734 19.8371C159.386 20.813 159.734 21.9604 159.734 23.1341C159.732 24.7074 159.107 26.2157 157.994 27.3282C156.882 28.4407 155.373 29.0665 153.8 29.0683ZM153.8 18.0387C152.792 18.0387 151.807 18.3375 150.969 18.8974C150.131 19.4572 149.478 20.253 149.093 21.184C148.707 22.1151 148.606 23.1395 148.803 24.1279C148.999 25.1163 149.484 26.0242 150.197 26.7368C150.909 27.4494 151.817 27.9347 152.806 28.1313C153.794 28.328 154.819 28.2271 155.75 27.8414C156.681 27.4558 157.476 26.8028 158.036 25.9649C158.596 25.127 158.895 24.1418 158.895 23.1341C158.894 21.7832 158.356 20.4881 157.401 19.5328C156.446 18.5776 155.151 18.0403 153.8 18.0387Z" fill="#DFDFDF"/>
<path d="M156.123 22.8565L154.283 20.6187C154.233 20.558 154.17 20.5088 154.1 20.4747C154.029 20.4405 153.951 20.4222 153.873 20.4209C153.794 20.4195 153.716 20.4353 153.644 20.4671C153.573 20.4989 153.508 20.546 153.456 20.605L151.488 22.8429C151.394 22.951 151.347 23.092 151.357 23.2351C151.366 23.3781 151.432 23.5115 151.54 23.6062C151.647 23.7008 151.788 23.749 151.931 23.7402C152.074 23.7315 152.208 23.6664 152.303 23.5593L153.321 22.4015V25.3048C153.321 25.4487 153.379 25.5867 153.48 25.6884C153.582 25.7901 153.72 25.8473 153.864 25.8473C154.008 25.8473 154.146 25.7901 154.247 25.6884C154.349 25.5867 154.406 25.4487 154.406 25.3048V22.4769L155.285 23.5456C155.377 23.6568 155.508 23.727 155.651 23.741C155.795 23.7549 155.938 23.7114 156.049 23.6201C156.16 23.5287 156.23 23.3969 156.244 23.2537C156.258 23.1105 156.214 22.9677 156.123 22.8566L156.123 22.8565Z" fill="#DFDFDF"/>
</g>
<defs>
<clipPath id="clip0_2_379">
<rect width="280" height="247.295" fill="white"/>
</clipPath>
</defs>
</svg>
